<svg width="161" height="58" viewBox="0 0 161 58" fill="none" xmlns="http://www.w3.org/2000/svg">
<g filter="url(#filter0_d_2003_4042)">
<path d="M6.62323 4.70163C6.7626 3.15541 8.05862 1.97095 9.61111 1.97095H155.437C157.2 1.97095 158.583 3.4842 158.425 5.24026L154.379 50.121C154.24 51.6672 152.944 52.8517 151.391 52.8517H5.56577C3.80259 52.8517 2.4196 51.3384 2.57788 49.5824L6.62323 4.70163Z" fill="#EFC609"/>
<path d="M155.437 1.17114C157.67 1.17114 159.422 3.08757 159.222 5.31177L155.176 50.1926C154.999 52.1511 153.358 53.6514 151.392 53.6516H5.56543C3.33238 53.6514 1.58103 51.735 1.78125 49.511L5.82617 4.63013C6.00271 2.67158 7.64484 1.17114 9.61133 1.17114H155.437Z" stroke="black" stroke-width="1.6"/>
</g>
<mask id="mask0_2003_4042" style="mask-type:alpha" maskUnits="userSpaceOnUse" x="2" y="1" width="157" height="52">
<path d="M6.62323 4.70212C6.7626 3.15589 8.05862 1.97144 9.61111 1.97144H155.437C157.2 1.97144 158.583 3.48469 158.425 5.24075L154.379 50.1215C154.24 51.6677 152.944 52.8522 151.391 52.8522H5.56577C3.80259 52.8522 2.4196 51.3389 2.57788 49.5828L6.62323 4.70212Z" fill="#EFC609"/>
</mask>
<g mask="url(#mask0_2003_4042)">
<rect x="2.2832" width="158.72" height="5.4385" fill="#FBEF44"/>
<rect y="48.7998" width="158.72" height="5.4385" fill="#A6552D"/>
<path d="M160.692 11.3078L152.324 0.897949H160.692V11.3078Z" fill="#FFFEA3"/>
</g>
<defs>
<filter id="filter0_d_2003_4042" x="0.96582" y="0.37085" width="159.071" height="57.0808" filterUnits="userSpaceOnUse" color-interpolation-filters="sRGB">
<feFlood flood-opacity="0" result="BackgroundImageFix"/>
<feColorMatrix in="SourceAlpha" type="matrix" values="0 0 0 0 0 0 0 0 0 0 0 0 0 0 0 0 0 0 127 0" result="hardAlpha"/>
<feOffset dy="3"/>
<feComposite in2="hardAlpha" operator="out"/>
<feColorMatrix type="matrix" values="0 0 0 0 0 0 0 0 0 0 0 0 0 0 0 0 0 0 0.5 0"/>
<feBlend mode="normal" in2="BackgroundImageFix" result="effect1_dropShadow_2003_4042"/>
<feBlend mode="normal" in="SourceGraphic" in2="effect1_dropShadow_2003_4042" result="shape"/>
</filter>
</defs>
</svg>
