<svg width="45" height="39" viewBox="0 0 45 39" fill="none" xmlns="http://www.w3.org/2000/svg">
<g opacity="0.8">
<g filter="url(#filter0_di_2044_4369)">
<mask id="path-1-outside-1_2044_4369" maskUnits="userSpaceOnUse" x="2" y="0" width="41" height="35" fill="black">
<rect fill="white" x="2" width="41" height="35"/>
<path fill-rule="evenodd" clip-rule="evenodd" d="M13 1C7.47715 1 3 5.47715 3 11V19.1235C3 24.6464 7.47715 29.1235 13 29.1235H19.2116L23.1577 33.9409L27.3168 29.1235H31.9688C37.4916 29.1235 41.9688 24.6464 41.9688 19.1235V11C41.9688 5.47715 37.4916 1 31.9688 1H13Z"/>
</mask>
<path fill-rule="evenodd" clip-rule="evenodd" d="M13 1C7.47715 1 3 5.47715 3 11V19.1235C3 24.6464 7.47715 29.1235 13 29.1235H19.2116L23.1577 33.9409L27.3168 29.1235H31.9688C37.4916 29.1235 41.9688 24.6464 41.9688 19.1235V11C41.9688 5.47715 37.4916 1 31.9688 1H13Z" fill="white"/>
<path d="M19.2116 29.1235L19.5984 28.8067L19.4484 28.6235H19.2116V29.1235ZM23.1577 33.9409L22.7709 34.2578L23.1477 34.7177L23.5362 34.2677L23.1577 33.9409ZM27.3168 29.1235V28.6235H27.0879L26.9383 28.7968L27.3168 29.1235ZM3 11H3.5C3.5 5.75329 7.7533 1.5 13 1.5V1V0.5C7.20101 0.5 2.5 5.20101 2.5 11H3ZM3 19.1235H3.5V11H3H2.5V19.1235H3ZM13 29.1235V28.6235C7.7533 28.6235 3.5 24.3702 3.5 19.1235H3H2.5C2.5 24.9225 7.20101 29.6235 13 29.6235V29.1235ZM19.2116 29.1235V28.6235H13V29.1235V29.6235H19.2116V29.1235ZM23.1577 33.9409L23.5445 33.6241L19.5984 28.8067L19.2116 29.1235L18.8248 29.4404L22.7709 34.2578L23.1577 33.9409ZM27.3168 29.1235L26.9383 28.7968L22.7792 33.6142L23.1577 33.9409L23.5362 34.2677L27.6952 29.4503L27.3168 29.1235ZM31.9688 29.1235V28.6235H27.3168V29.1235V29.6235H31.9688V29.1235ZM41.9688 19.1235H41.4688C41.4688 24.3702 37.2155 28.6235 31.9688 28.6235V29.1235V29.6235C37.7677 29.6235 42.4688 24.9225 42.4688 19.1235H41.9688ZM41.9688 11H41.4688V19.1235H41.9688H42.4688V11H41.9688ZM31.9688 1V1.5C37.2155 1.5 41.4688 5.75329 41.4688 11H41.9688H42.4688C42.4688 5.20101 37.7677 0.5 31.9688 0.5V1ZM13 1V1.5H31.9688V1V0.5H13V1Z" fill="black" mask="url(#path-1-outside-1_2044_4369)"/>
</g>
<circle cx="12.7524" cy="20.9385" r="3.81787" fill="#040513"/>
<circle cx="22.3779" cy="20.9385" r="3.81787" fill="#040513"/>
<circle cx="32.2163" cy="20.9385" r="3.81787" fill="#040513"/>
</g>
<defs>
<filter id="filter0_di_2044_4369" x="0.5" y="0.5" width="43.9688" height="38.2178" filterUnits="userSpaceOnUse" color-interpolation-filters="sRGB">
<feFlood flood-opacity="0" result="BackgroundImageFix"/>
<feColorMatrix in="SourceAlpha" type="matrix" values="0 0 0 0 0 0 0 0 0 0 0 0 0 0 0 0 0 0 127 0" result="hardAlpha"/>
<feOffset dy="2"/>
<feGaussianBlur stdDeviation="1"/>
<feComposite in2="hardAlpha" operator="out"/>
<feColorMatrix type="matrix" values="0 0 0 0 0 0 0 0 0 0 0 0 0 0 0 0 0 0 1 0"/>
<feBlend mode="normal" in2="BackgroundImageFix" result="effect1_dropShadow_2044_4369"/>
<feBlend mode="normal" in="SourceGraphic" in2="effect1_dropShadow_2044_4369" result="shape"/>
<feColorMatrix in="SourceAlpha" type="matrix" values="0 0 0 0 0 0 0 0 0 0 0 0 0 0 0 0 0 0 127 0" result="hardAlpha"/>
<feOffset dy="2"/>
<feComposite in2="hardAlpha" operator="arithmetic" k2="-1" k3="1"/>
<feColorMatrix type="matrix" values="0 0 0 0 0 0 0 0 0 0 0 0 0 0 0 0 0 0 0.15 0"/>
<feBlend mode="normal" in2="shape" result="effect2_innerShadow_2044_4369"/>
</filter>
</defs>
</svg>
