<svg width="44" height="46" viewBox="0 0 44 46" fill="none" xmlns="http://www.w3.org/2000/svg">
<g filter="url(#filter0_d_160_14380)">
<mask id="path-1-outside-1_160_14380" maskUnits="userSpaceOnUse" x="0.485352" y="0" width="44" height="44" fill="black">
<rect fill="white" x="0.485352" width="44" height="44"/>
<path fill-rule="evenodd" clip-rule="evenodd" d="M9.30469 9.08316L8.59473 12.296H8.94352L5.33887 13.6772L5.26556 14.2392L3.38965 14.9158L2.48535 18.2497L15.9913 41.8714L41.1388 32.1514L42.043 29.0433L37.9886 21.8257L38.4642 21.3113C38.5125 21.2591 38.4925 21.1748 38.426 21.1498L37.3903 20.7608L29.1812 6.147C29.0376 5.89139 28.7303 5.77698 28.4545 5.87644L28.1526 5.98532L28.0372 5.75408C27.8533 5.38558 27.4197 5.21689 27.0351 5.36424L23.894 6.56776L22.877 4.45001C22.736 4.15643 22.3866 4.02892 22.0896 4.16272L20.4593 4.89737C18.7906 1.06956 11.8081 0.0330876 11.1591 8.09396L9.30469 9.08316ZM16.397 8.29394C17.5191 8.29394 18.4287 7.3843 18.4287 6.2622C18.4287 5.14011 17.5191 4.23046 16.397 4.23046C15.2749 4.23046 14.3652 5.14011 14.3652 6.2622C14.3652 7.3843 15.2749 8.29394 16.397 8.29394Z"/>
</mask>
<path d="M8.59473 12.296L7.13006 11.9724L6.72708 13.796H8.59473V12.296ZM9.30469 9.08316L8.59872 7.75967L7.9891 8.08485L7.84002 8.7595L9.30469 9.08316ZM8.94352 12.296L9.4802 13.6967L8.94352 10.796V12.296ZM5.33887 13.6772L4.80219 12.2765L3.96711 12.5964L3.85146 13.4832L5.33887 13.6772ZM5.26556 14.2392L5.77444 15.6503L6.6347 15.34L6.75297 14.4332L5.26556 14.2392ZM3.38965 14.9158L2.88077 13.5047L2.14634 13.7696L1.94196 14.5231L3.38965 14.9158ZM2.48535 18.2497L1.03766 17.8571L0.875273 18.4558L1.18317 18.9943L2.48535 18.2497ZM15.9913 41.8714L14.6891 42.6159L15.3292 43.7354L16.5321 43.2705L15.9913 41.8714ZM41.1388 32.1514L41.6796 33.5505L42.3718 33.283L42.5791 32.5704L41.1388 32.1514ZM42.043 29.0433L43.4833 29.4623L43.6592 28.8577L43.3508 28.3086L42.043 29.0433ZM37.9886 21.8257L36.8873 20.8073L36.1462 21.6087L36.6808 22.5603L37.9886 21.8257ZM38.4642 21.3113L37.363 20.2929L37.3629 20.2929L38.4642 21.3113ZM38.426 21.1498L37.8985 22.554L37.8985 22.554L38.426 21.1498ZM37.3903 20.7608L36.0826 21.4954L36.3506 21.9725L36.8629 22.165L37.3903 20.7608ZM29.1812 6.147L30.489 5.41236L30.4889 5.41235L29.1812 6.147ZM28.4545 5.87644L27.9456 4.46539V4.46539L28.4545 5.87644ZM28.1526 5.98532L26.8104 6.65507L27.4062 7.84906L28.6614 7.39637L28.1526 5.98532ZM28.0372 5.75408L26.695 6.42382L26.695 6.42383L28.0372 5.75408ZM27.0351 5.36424L26.4984 3.96353V3.96353L27.0351 5.36424ZM23.894 6.56776L22.5418 7.21711L23.1401 8.46294L24.4307 7.96847L23.894 6.56776ZM22.877 4.45001L24.2292 3.80067L24.2292 3.80066L22.877 4.45001ZM22.0896 4.16272L21.4734 2.79515L21.4734 2.79515L22.0896 4.16272ZM20.4593 4.89737L19.0843 5.49679L19.6911 6.88879L21.0755 6.26494L20.4593 4.89737ZM11.1591 8.09396L11.8651 9.41744L12.5885 9.03157L12.6543 8.21433L11.1591 8.09396ZM10.0594 12.6197L10.7694 9.40681L7.84002 8.7595L7.13006 11.9724L10.0594 12.6197ZM8.94352 10.796H8.59473V13.796H8.94352V10.796ZM5.87555 15.0779L9.4802 13.6967L8.40684 10.8953L4.80219 12.2765L5.87555 15.0779ZM6.75297 14.4332L6.82627 13.8711L3.85146 13.4832L3.77816 14.0452L6.75297 14.4332ZM3.89852 16.3268L5.77444 15.6503L4.75669 12.8282L2.88077 13.5047L3.89852 16.3268ZM3.93304 18.6424L4.83734 15.3084L1.94196 14.5231L1.03766 17.8571L3.93304 18.6424ZM17.2934 41.1268L3.78753 17.5052L1.18317 18.9943L14.6891 42.6159L17.2934 41.1268ZM40.598 30.7523L15.4505 40.4722L16.5321 43.2705L41.6796 33.5505L40.598 30.7523ZM40.6027 28.6243L39.6985 31.7324L42.5791 32.5704L43.4833 29.4623L40.6027 28.6243ZM36.6808 22.5603L40.7352 29.7779L43.3508 28.3086L39.2964 21.0911L36.6808 22.5603ZM39.0899 22.8441L39.5655 22.3297L37.3629 20.2929L36.8873 20.8073L39.0899 22.8441ZM39.5655 22.3297C40.3371 21.4954 40.0172 20.1452 38.9535 19.7456L37.8985 22.554C36.9677 22.2043 36.6878 21.0229 37.363 20.2929L39.5655 22.3297ZM38.9535 19.7456L37.9178 19.3566L36.8629 22.165L37.8985 22.554L38.9535 19.7456ZM27.8734 6.88164L36.0826 21.4954L38.6981 20.0261L30.489 5.41236L27.8734 6.88164ZM28.9634 7.28748C28.5497 7.43668 28.0888 7.26505 27.8734 6.88165L30.4889 5.41235C29.9864 4.51773 28.9109 4.11728 27.9456 4.46539L28.9634 7.28748ZM28.6614 7.39637L28.9634 7.28748L27.9456 4.46539L27.6437 4.57428L28.6614 7.39637ZM26.695 6.42383L26.8104 6.65507L29.4948 5.31558L29.3794 5.08434L26.695 6.42383ZM27.5718 6.76494C27.2353 6.89387 26.8559 6.74626 26.695 6.42382L29.3794 5.08434C28.8507 4.0249 27.6041 3.5399 26.4984 3.96353L27.5718 6.76494ZM24.4307 7.96847L27.5718 6.76494L26.4984 3.96353L23.3573 5.16706L24.4307 7.96847ZM21.5248 5.09936L22.5418 7.21711L25.2462 5.91842L24.2292 3.80067L21.5248 5.09936ZM22.7059 5.53029C22.2605 5.73099 21.7363 5.53973 21.5248 5.09936L24.2292 3.80066C23.7357 2.77313 22.5126 2.32686 21.4734 2.79515L22.7059 5.53029ZM21.0755 6.26494L22.7059 5.53029L21.4734 2.79515L19.8431 3.5298L21.0755 6.26494ZM12.6543 8.21433C12.7998 6.40727 13.2877 5.26941 13.8281 4.58571C14.3547 3.91951 14.9871 3.60889 15.6241 3.52438C16.9923 3.34287 18.5159 4.19288 19.0843 5.49679L21.8343 4.29795C20.7341 1.77404 17.932 0.191916 15.2295 0.550437C13.8312 0.735942 12.4919 1.43838 11.4746 2.72535C10.4712 3.99481 9.84295 5.75022 9.66396 7.9736L12.6543 8.21433ZM10.0107 10.4066L11.8651 9.41744L10.4532 6.77048L8.59872 7.75967L10.0107 10.4066ZM16.9287 6.2622C16.9287 6.55587 16.6906 6.79394 16.397 6.79394V9.79394C18.3475 9.79394 19.9287 8.21273 19.9287 6.2622H16.9287ZM16.397 5.73046C16.6906 5.73046 16.9287 5.96853 16.9287 6.2622H19.9287C19.9287 4.31168 18.3475 2.73046 16.397 2.73046V5.73046ZM15.8652 6.2622C15.8652 5.96853 16.1033 5.73046 16.397 5.73046V2.73046C14.4464 2.73046 12.8652 4.31168 12.8652 6.2622H15.8652ZM16.397 6.79394C16.1033 6.79394 15.8652 6.55587 15.8652 6.2622H12.8652C12.8652 8.21273 14.4464 9.79394 16.397 9.79394V6.79394Z" fill="black" mask="url(#path-1-outside-1_160_14380)"/>
</g>
<path d="M2.48584 18.2497L3.39014 14.9158L28.9329 5.7041L42.0435 29.0433L41.1393 32.1514L15.9918 41.8714L2.48584 18.2497Z" fill="#C65229"/>
<mask id="mask0_160_14380" style="mask-type:alpha" maskUnits="userSpaceOnUse" x="2" y="5" width="41" height="37">
<path d="M2.48535 18.2497L3.38965 14.9158L28.9324 5.7041L42.043 29.0433L41.1388 32.1514L15.9913 41.8714L2.48535 18.2497Z" fill="#D9D9D9"/>
</mask>
<g mask="url(#mask0_160_14380)">
<path d="M17.0384 38.6342L3.14476 14.3919L29.2443 4.40723L42.8343 28.8189L17.0384 38.6342Z" fill="#FFA15E"/>
</g>
<path d="M5.02734 16.0658L5.33887 13.6772L27.713 5.10449L37.743 25.2047V27.4107L16.923 35.9836L5.02734 16.0658Z" fill="#00AADD"/>
<mask id="mask1_160_14380" style="mask-type:alpha" maskUnits="userSpaceOnUse" x="5" y="5" width="33" height="31">
<path d="M5.02734 16.0658L5.33887 13.6772L27.713 5.10449L37.743 25.2047V27.4107L16.923 35.9836L5.02734 16.0658Z" fill="#C85227"/>
</mask>
<g mask="url(#mask1_160_14380)">
<path d="M16.9082 36.1699L17.4121 33.9082L38.1478 25.1064V27.3851L16.9082 36.1699Z" fill="#8FDFF6"/>
<path d="M17.4064 33.9124L5.28711 13.5715L27.6913 4.99316L35.1387 19.8916L32.8965 27.3291L17.4064 33.9124Z" fill="white"/>
</g>
<path d="M38.5652 21.2021L35.1414 19.916L32.8887 27.3408L38.5652 21.2021Z" fill="#8BE0F5"/>
<path d="M15.7178 25.8347L16.6152 21.8318L21.4622 23.442L23.4604 12.0469L29.4547 13.5042L23.709 28.0138L15.7178 25.8347Z" fill="#005CE1"/>
<path fill-rule="evenodd" clip-rule="evenodd" d="M9.30469 9.08316L8.59473 12.296H10.2147L11.5299 14.1505L25.2501 9.39169L22.877 4.45001C22.736 4.15643 22.3866 4.02892 22.0896 4.16272L20.4593 4.89737C18.7906 1.06956 11.8081 0.0330876 11.1591 8.09396L9.30469 9.08316ZM16.397 8.29394C17.5191 8.29394 18.4287 7.3843 18.4287 6.2622C18.4287 5.14011 17.5191 4.23046 16.397 4.23046C15.2749 4.23046 14.3652 5.14011 14.3652 6.2622C14.3652 7.3843 15.2749 8.29394 16.397 8.29394Z" fill="#7DD4F8"/>
<mask id="mask2_160_14380" style="mask-type:alpha" maskUnits="userSpaceOnUse" x="8" y="2" width="18" height="13">
<path fill-rule="evenodd" clip-rule="evenodd" d="M9.30469 9.08316L8.59473 12.296H10.2147L11.5299 14.1505L25.2501 9.39169L22.877 4.45001C22.736 4.15643 22.3866 4.02892 22.0896 4.16272L20.4593 4.89737C18.7906 1.06956 11.8081 0.0330876 11.1591 8.09396L9.30469 9.08316ZM16.397 8.29394C17.5191 8.29394 18.4287 7.3843 18.4287 6.2622C18.4287 5.14011 17.5191 4.23046 16.397 4.23046C15.2749 4.23046 14.3652 5.14011 14.3652 6.2622C14.3652 7.3843 15.2749 8.29394 16.397 8.29394Z" fill="#7DD4F8"/>
</mask>
<g mask="url(#mask2_160_14380)">
<path d="M11.6393 14.2833L9.21099 8.67755L7.87695 12.0497L11.6393 14.2833Z" fill="#D9D9D9"/>
</g>
<defs>
<filter id="filter0_d_160_14380" x="0.275488" y="0.5" width="43.3837" height="45.2354" filterUnits="userSpaceOnUse" color-interpolation-filters="sRGB">
<feFlood flood-opacity="0" result="BackgroundImageFix"/>
<feColorMatrix in="SourceAlpha" type="matrix" values="0 0 0 0 0 0 0 0 0 0 0 0 0 0 0 0 0 0 127 0" result="hardAlpha"/>
<feOffset dx="-0.6" dy="2"/>
<feComposite in2="hardAlpha" operator="out"/>
<feColorMatrix type="matrix" values="0 0 0 0 0 0 0 0 0 0 0 0 0 0 0 0 0 0 0.25 0"/>
<feBlend mode="normal" in2="BackgroundImageFix" result="effect1_dropShadow_160_14380"/>
<feBlend mode="normal" in="SourceGraphic" in2="effect1_dropShadow_160_14380" result="shape"/>
</filter>
</defs>
</svg>
