<svg width="36" height="32" viewBox="0 0 36 32" fill="none" xmlns="http://www.w3.org/2000/svg">
<path d="M25.4863 1.03027C25.6489 1.00632 25.8149 1.05003 25.9443 1.15137L34.252 7.66309C34.3846 7.76728 34.4671 7.92256 34.4795 8.09082C34.4919 8.25933 34.4327 8.42529 34.3164 8.54785L32.6846 10.2666V15.9092C32.6846 16.4936 32.4197 16.9554 32.0244 17.2539C31.6463 17.5393 31.1726 17.6611 30.7305 17.6592C30.2884 17.6572 29.8171 17.5316 29.4414 17.2471C29.0493 16.95 28.7812 16.4908 28.7812 15.9092V14.3789L13.3613 30.626C13.1377 30.8612 12.767 30.876 12.5254 30.6592L1.59961 20.8555C1.36616 20.646 1.33333 20.2917 1.52441 20.043L6.23926 13.9062L6.32324 13.8174C6.4152 13.7381 6.5297 13.6876 6.65234 13.6748C6.81589 13.6577 6.97946 13.7086 7.10449 13.8154L12.8145 18.7002L25.084 1.27832L25.1641 1.18652C25.2525 1.10361 25.3645 1.0483 25.4863 1.03027Z" fill="#18FE10" stroke="black" stroke-width="1.2" stroke-linejoin="round"/>
<path d="M8.7078 22.3234C8.24522 18.99 12.4083 19.2594 12.0808 22.3234M14.3546 22.3237C13.892 18.9903 18.0551 19.2597 17.7276 22.3237" stroke="black" stroke-linecap="round" stroke-linejoin="round"/>
<path d="M13.9131 24.0417C14.0788 24.0417 14.2129 24.1759 14.2129 24.3416V26.699C14.2128 27.4902 13.5321 27.9134 12.9326 27.9441C12.6241 27.9599 12.2966 27.879 12.041 27.6677C11.7781 27.4504 11.6212 27.1191 11.6211 26.699V24.3416C11.6211 24.1759 11.7552 24.0417 11.9209 24.0417H13.9131Z" fill="#462427" stroke="black" stroke-width="0.6" stroke-linecap="round" stroke-linejoin="round"/>
<mask id="mask0_2165_10050" style="mask-type:alpha" maskUnits="userSpaceOnUse" x="11" y="24" width="3" height="4">
<path d="M13.9133 24.3416H11.9209V26.6987C11.9209 28.0612 13.9133 27.8575 13.9133 26.6987V24.3416Z" fill="#F74656"/>
</mask>
<g mask="url(#mask0_2165_10050)">
<ellipse cx="12.4016" cy="26.5342" rx="1.71558" ry="1.94067" fill="#EF3045"/>
</g>
</svg>
